<svg id="svg" version="1.1" xmlns="http://www.w3.org/2000/svg" xmlns:xlink="http://www.w3.org/1999/xlink" width="400" height="401.4440433212996" viewBox="0, 0, 400,401.4440433212996"><g id="svgg"><path id="path0" d="M143.445 11.828 C 143.310 12.179,143.200 13.486,143.200 14.733 C 143.200 15.980,142.944 18.350,142.630 20.000 C 142.317 21.650,141.940 25.790,141.792 29.200 C 141.644 32.610,141.282 36.390,140.987 37.600 C 140.693 38.810,140.344 41.759,140.211 44.153 C 140.079 46.547,139.761 48.887,139.505 49.353 C 139.248 49.819,138.903 52.270,138.737 54.800 C 138.571 57.330,138.239 61.380,138.000 63.800 C 137.761 66.220,137.421 70.270,137.244 72.800 C 137.068 75.330,136.716 77.907,136.462 78.526 C 136.208 79.145,135.992 81.215,135.982 83.126 C 135.972 85.212,135.723 87.239,135.360 88.200 C 135.028 89.080,134.589 92.050,134.386 94.800 C 134.184 97.550,133.830 101.600,133.600 103.800 C 133.370 106.000,133.027 109.960,132.836 112.600 C 132.646 115.240,132.290 117.907,132.045 118.526 C 131.800 119.145,131.600 121.164,131.600 123.012 C 131.600 124.860,131.350 127.143,131.044 128.086 C 130.502 129.756,129.889 135.970,129.830 140.400 L 129.800 142.600 146.174 142.705 C 164.733 142.823,163.185 143.153,163.194 139.079 C 163.197 137.582,163.457 135.152,163.771 133.679 C 164.085 132.206,164.450 129.224,164.582 127.052 C 164.715 124.881,165.011 122.753,165.241 122.324 C 165.471 121.894,165.840 119.171,166.061 116.271 C 166.282 113.372,166.617 109.290,166.805 107.200 C 166.993 105.110,167.317 101.060,167.524 98.200 C 167.732 95.340,168.103 92.493,168.351 91.874 C 168.598 91.255,168.800 89.357,168.800 87.658 C 168.800 85.959,169.091 83.495,169.447 82.184 C 169.803 80.873,170.246 77.640,170.432 75.000 C 170.617 72.360,170.957 68.220,171.187 65.800 C 171.417 63.380,171.763 59.330,171.957 56.800 C 172.150 54.270,172.509 51.693,172.754 51.074 C 172.999 50.455,173.200 48.328,173.200 46.348 C 173.200 44.368,173.405 42.364,173.656 41.896 C 173.906 41.428,174.271 38.964,174.467 36.422 C 174.882 31.025,175.323 25.953,176.044 18.274 C 176.413 14.343,176.440 12.553,176.138 12.074 C 175.504 11.068,143.828 10.830,143.445 11.828 M307.917 11.500 L 292.035 11.609 291.800 13.105 C 291.670 13.927,291.403 15.230,291.206 16.000 C 291.009 16.770,290.649 20.640,290.407 24.600 C 290.164 28.560,289.703 33.690,289.381 36.000 C 289.059 38.310,288.796 41.461,288.798 43.003 C 288.799 44.544,288.604 46.434,288.364 47.203 C 288.125 47.971,287.783 50.850,287.604 53.600 C 287.426 56.350,287.087 59.410,286.850 60.400 C 286.614 61.390,286.220 65.440,285.974 69.400 C 285.729 73.360,285.274 78.423,284.964 80.651 C 284.654 82.880,284.400 85.962,284.400 87.501 C 284.400 89.040,284.130 91.065,283.800 92.000 C 283.423 93.068,283.200 95.159,283.200 97.624 C 283.200 99.782,283.002 102.055,282.760 102.674 C 282.519 103.293,282.204 105.060,282.060 106.600 L 281.800 109.400 265.863 109.505 L 249.925 109.609 250.155 107.305 C 250.378 105.060,250.674 101.668,251.574 91.000 C 251.816 88.140,252.182 84.990,252.389 84.000 C 252.596 83.010,252.773 80.738,252.783 78.950 C 252.792 77.130,253.064 74.953,253.400 74.000 C 253.742 73.032,254.003 70.900,254.006 69.050 C 254.010 67.262,254.273 64.720,254.592 63.400 C 254.911 62.080,255.178 59.931,255.186 58.623 C 255.194 57.316,255.406 54.216,255.658 51.734 C 256.304 45.361,258.102 45.971,239.056 46.096 L 223.018 46.200 222.728 48.000 C 222.369 50.222,221.628 58.257,221.217 64.400 C 221.047 66.930,220.614 69.978,220.254 71.173 C 219.885 72.399,219.598 74.751,219.595 76.573 C 219.593 78.348,219.325 80.790,219.000 82.000 C 218.675 83.210,218.400 85.460,218.388 87.000 C 218.377 88.540,218.092 92.410,217.756 95.600 C 217.420 98.790,217.016 103.560,216.859 106.200 C 216.693 108.987,216.344 111.414,216.026 111.987 C 215.693 112.587,215.380 114.944,215.227 117.987 C 215.090 120.744,214.842 123.215,214.678 123.478 C 214.514 123.741,214.197 126.981,213.972 130.678 C 213.716 134.913,213.350 137.866,212.983 138.660 C 212.662 139.354,212.400 140.218,212.400 140.581 C 212.400 140.944,212.060 141.907,211.643 142.721 C 211.227 143.534,210.314 145.395,209.615 146.856 C 208.915 148.316,208.040 149.846,207.671 150.256 C 207.302 150.665,206.476 151.771,205.836 152.714 C 204.565 154.586,199.818 159.200,199.164 159.200 C 198.940 159.200,198.217 159.704,197.559 160.320 C 196.900 160.935,195.784 161.730,195.080 162.085 C 192.196 163.539,189.214 164.800,188.657 164.800 C 188.331 164.800,187.555 165.059,186.932 165.377 C 186.310 165.694,184.206 166.176,182.258 166.448 C 177.807 167.069,177.600 167.273,177.600 171.055 C 177.600 172.704,177.411 174.405,177.180 174.837 C 176.950 175.268,176.593 178.001,176.389 180.910 C 176.185 183.820,175.801 188.360,175.537 191.000 C 175.273 193.640,175.045 196.520,175.029 197.400 L 175.000 199.000 177.553 198.927 C 178.957 198.886,180.577 198.662,181.153 198.428 C 181.729 198.194,183.550 197.832,185.200 197.623 C 190.867 196.907,196.896 195.453,198.800 194.344 C 199.729 193.802,200.796 193.340,203.400 192.350 C 204.720 191.848,206.084 191.204,206.431 190.919 C 206.779 190.633,207.188 190.400,207.341 190.400 C 207.875 190.400,214.005 186.686,214.899 185.821 C 215.394 185.341,216.520 184.528,217.400 184.013 C 218.280 183.498,219.180 182.878,219.400 182.635 C 219.620 182.392,220.881 181.295,222.202 180.197 C 224.284 178.466,226.563 176.124,231.201 170.953 C 232.382 169.637,235.200 165.739,235.200 165.422 C 235.200 165.319,235.875 164.271,236.700 163.091 C 237.525 161.912,238.648 159.969,239.196 158.773 C 239.743 157.578,240.296 156.510,240.423 156.400 C 240.835 156.045,242.400 152.565,242.414 151.974 C 242.421 151.658,242.775 150.680,243.200 149.800 C 243.625 148.920,243.979 147.817,243.986 147.349 C 243.994 146.881,244.270 146.274,244.600 146.000 C 244.930 145.726,245.200 145.260,245.200 144.965 C 245.200 143.663,246.762 143.600,279.168 143.600 L 311.589 143.600 312.255 142.100 C 312.678 141.148,313.025 138.847,313.206 135.800 C 313.363 133.160,313.690 129.830,313.932 128.400 C 314.175 126.970,314.567 122.380,314.803 118.200 C 315.040 114.020,315.398 109.610,315.599 108.400 C 315.800 107.190,316.059 104.298,316.174 101.974 C 316.289 99.650,316.657 96.972,316.992 96.024 C 317.366 94.964,317.600 92.893,317.600 90.650 C 317.600 88.642,317.850 85.650,318.155 84.000 C 318.461 82.350,318.836 78.390,318.990 75.200 C 319.143 72.010,319.433 68.050,319.634 66.400 C 319.835 64.750,320.162 60.970,320.359 58.000 C 320.563 54.948,320.997 51.839,321.359 50.850 C 321.757 49.764,322.000 47.826,322.000 45.747 C 322.000 43.903,322.258 40.641,322.573 38.497 C 322.887 36.354,323.267 31.540,323.416 27.800 C 323.565 24.060,323.934 19.920,324.237 18.600 C 325.034 15.128,324.932 10.971,324.057 11.295 C 323.916 11.348,316.653 11.440,307.917 11.500 M358.000 11.716 C 357.043 12.199,356.989 12.425,356.742 16.946 C 356.600 19.544,356.296 22.420,356.065 23.335 C 355.835 24.251,355.547 27.070,355.425 29.600 C 355.304 32.130,355.007 34.830,354.765 35.600 C 354.522 36.370,354.170 39.520,353.981 42.600 C 353.792 45.680,353.442 50.540,353.202 53.400 C 352.962 56.260,352.613 61.120,352.427 64.200 C 352.240 67.280,351.909 70.251,351.691 70.803 C 351.472 71.354,351.185 74.108,351.051 76.921 C 350.918 79.735,350.636 82.358,350.426 82.751 C 350.216 83.144,349.941 85.431,349.815 87.833 C 349.690 90.235,349.490 93.115,349.373 94.234 C 349.255 95.353,349.153 97.414,349.147 98.814 C 349.140 100.214,348.880 102.809,348.568 104.580 C 348.256 106.351,348.001 109.543,348.001 111.674 C 348.000 113.805,347.796 116.055,347.547 116.674 C 347.298 117.293,346.958 120.230,346.791 123.200 C 346.624 126.170,346.292 129.410,346.054 130.400 C 345.816 131.390,345.420 135.710,345.175 140.000 C 344.929 144.290,344.475 149.741,344.164 152.114 C 343.854 154.486,343.597 157.906,343.594 159.714 C 343.591 161.553,343.334 163.705,343.012 164.600 C 342.654 165.593,342.428 167.793,342.418 170.403 C 342.408 172.714,342.203 175.234,341.963 176.003 C 341.723 176.771,341.360 180.010,341.158 183.200 C 340.955 186.390,340.642 191.070,340.462 193.600 C 340.184 197.507,340.227 198.275,340.744 198.700 C 341.390 199.230,369.799 199.460,372.323 198.955 C 373.798 198.660,373.909 197.868,375.165 178.553 C 375.367 175.447,375.818 172.066,376.166 171.039 C 376.578 169.825,376.800 167.770,376.800 165.163 C 376.800 162.958,376.973 159.949,377.184 158.477 C 377.395 157.005,377.758 152.830,377.990 149.200 C 378.222 145.570,378.607 140.890,378.845 138.800 C 379.082 136.710,379.416 132.467,379.586 129.371 C 379.756 126.271,380.119 123.326,380.392 122.814 C 380.668 122.299,381.045 119.197,381.238 115.843 C 381.430 112.519,381.777 107.460,382.009 104.600 C 382.240 101.740,382.571 96.870,382.744 93.777 C 382.917 90.684,383.205 87.915,383.386 87.623 C 383.566 87.331,383.848 84.353,384.012 81.003 C 384.176 77.654,384.524 74.515,384.785 74.027 C 385.046 73.540,385.424 70.319,385.625 66.870 C 385.826 63.422,386.180 58.350,386.411 55.600 C 386.643 52.850,386.995 48.080,387.194 45.000 C 387.393 41.920,387.738 38.590,387.961 37.600 C 388.183 36.610,388.381 34.000,388.400 31.800 C 388.421 29.412,388.667 27.155,389.012 26.200 C 389.329 25.320,389.605 23.340,389.626 21.800 C 389.647 20.260,389.789 17.488,389.943 15.639 C 390.157 13.058,390.096 12.154,389.682 11.739 C 388.922 10.979,359.504 10.958,358.000 11.716 M264.500 170.661 C 263.783 170.956,263.882 172.669,264.633 172.957 C 264.981 173.091,266.523 173.200,268.059 173.200 C 272.709 173.200,272.400 172.415,272.400 184.240 C 272.400 195.318,272.516 196.000,274.400 196.000 C 276.269 196.000,276.399 195.280,276.406 184.926 C 276.413 172.997,276.236 173.470,280.810 173.200 L 284.200 173.000 284.200 171.800 L 284.200 170.600 274.600 170.528 C 269.320 170.488,264.775 170.548,264.500 170.661 M287.753 170.979 C 287.630 171.298,287.807 172.063,288.145 172.679 C 288.484 173.296,289.236 175.240,289.817 177.000 C 290.398 178.760,291.037 180.371,291.237 180.580 C 291.436 180.789,291.600 181.219,291.600 181.536 C 291.600 181.853,291.938 182.852,292.351 183.756 C 293.580 186.448,294.800 189.772,294.800 190.431 C 294.800 190.770,295.064 191.396,295.387 191.824 C 295.710 192.251,295.980 192.891,295.987 193.246 C 296.049 196.377,301.138 197.016,301.805 193.976 C 301.954 193.300,302.327 192.263,302.635 191.673 C 302.943 191.083,303.196 190.325,303.198 189.989 C 303.199 189.653,303.484 188.972,303.832 188.476 C 304.179 187.980,304.620 187.085,304.811 186.487 C 306.047 182.623,307.931 177.565,308.300 177.121 C 308.539 176.832,308.865 176.057,309.023 175.398 C 309.181 174.739,309.460 174.008,309.644 173.773 C 309.827 173.538,310.027 172.728,310.089 171.973 C 310.254 169.931,306.550 169.552,306.146 171.569 C 306.013 172.236,305.655 172.988,305.352 173.240 C 305.048 173.492,304.800 174.113,304.800 174.620 C 304.800 175.128,304.530 175.813,304.200 176.143 C 303.870 176.473,303.600 177.073,303.600 177.477 C 303.600 177.881,303.240 179.196,302.800 180.400 C 302.360 181.604,302.000 182.893,302.000 183.266 C 302.000 183.638,301.769 184.181,301.486 184.471 C 301.203 184.762,300.745 185.765,300.470 186.700 C 299.727 189.216,298.370 189.120,297.659 186.500 C 297.375 185.455,296.886 184.122,296.571 183.538 C 296.257 182.954,296.000 182.172,296.000 181.800 C 296.000 181.428,295.747 180.646,295.437 180.062 C 295.127 179.478,294.387 177.470,293.792 175.600 C 292.258 170.781,291.963 170.400,289.778 170.400 C 288.573 170.400,287.901 170.592,287.753 170.979 M240.400 215.687 C 239.850 215.927,237.780 216.355,235.800 216.640 C 229.460 217.550,223.211 219.121,220.873 220.393 C 220.503 220.594,219.030 221.241,217.600 221.831 C 212.952 223.746,212.355 224.052,212.133 224.630 C 212.013 224.944,211.707 225.200,211.454 225.200 C 210.688 225.200,207.137 227.215,204.800 228.975 C 203.590 229.886,202.132 230.926,201.559 231.286 C 199.887 232.338,191.142 241.147,188.740 244.200 C 186.098 247.557,183.600 251.088,183.600 251.464 C 183.600 251.614,183.346 252.021,183.036 252.369 C 182.368 253.115,179.200 259.177,179.200 259.707 C 179.200 259.909,178.840 260.531,178.400 261.091 C 177.960 261.650,177.600 262.498,177.600 262.974 C 177.600 263.450,177.411 264.029,177.179 264.261 C 176.699 264.741,175.761 267.866,175.023 271.442 C 174.746 272.785,174.373 274.121,174.193 274.411 C 172.126 277.757,172.088 298.856,174.141 304.000 C 174.668 305.321,174.998 306.460,176.126 310.841 C 176.387 311.854,176.847 312.979,177.149 313.341 C 178.361 314.796,177.150 315.171,170.860 315.290 L 165.000 315.400 164.742 318.293 C 164.599 319.884,164.295 322.044,164.065 323.093 C 163.835 324.142,163.441 327.970,163.189 331.600 C 162.937 335.230,162.476 339.654,162.165 341.431 C 161.474 345.385,161.442 348.082,162.080 348.720 C 162.451 349.091,184.932 349.200,260.833 349.200 L 359.107 349.200 359.348 348.300 C 359.481 347.805,359.592 346.770,359.595 346.000 C 359.598 345.230,359.855 343.340,360.166 341.800 C 360.477 340.260,360.854 335.760,361.004 331.800 C 361.154 327.840,361.451 323.700,361.663 322.600 C 361.876 321.500,362.202 317.875,362.387 314.545 C 362.572 311.215,362.934 308.098,363.190 307.619 C 363.447 307.139,363.831 304.194,364.045 301.074 C 364.259 297.953,364.605 293.240,364.814 290.600 C 365.023 287.960,365.361 283.100,365.566 279.800 C 365.771 276.500,366.132 273.171,366.369 272.403 C 366.606 271.634,366.800 269.182,366.800 266.953 C 366.800 264.395,367.019 262.281,367.393 261.220 C 367.742 260.231,368.079 257.303,368.213 254.100 C 368.337 251.108,368.548 248.484,368.681 248.269 C 368.929 247.868,369.368 242.387,369.852 233.662 C 370.075 229.635,370.021 228.659,369.563 228.368 C 368.630 227.778,337.884 227.903,337.078 228.500 C 336.542 228.897,336.356 229.911,336.181 233.400 C 336.059 235.820,335.788 238.778,335.580 239.973 C 335.371 241.169,335.196 243.779,335.191 245.773 C 335.185 248.088,334.895 250.475,334.391 252.373 C 333.884 254.277,333.600 256.630,333.600 258.915 C 333.600 260.878,333.348 263.501,333.040 264.742 C 332.732 265.984,332.363 270.150,332.219 274.000 C 332.075 277.850,331.776 282.260,331.556 283.800 C 331.335 285.340,331.001 288.940,330.814 291.800 C 330.627 294.660,330.292 297.540,330.070 298.200 C 329.848 298.860,329.565 301.444,329.440 303.942 C 329.216 308.450,328.628 312.571,327.963 314.300 L 327.617 315.200 281.709 315.193 C 255.016 315.189,234.293 315.025,232.200 314.800 C 220.755 313.573,210.062 304.328,207.936 293.821 C 207.715 292.733,207.280 291.478,206.968 291.032 C 206.033 289.698,206.187 281.756,207.191 279.544 C 207.626 278.585,207.993 277.260,208.005 276.600 C 208.018 275.940,208.286 274.950,208.600 274.400 C 208.914 273.850,209.178 273.036,209.186 272.591 C 209.194 272.146,209.788 270.886,210.507 269.791 C 211.226 268.696,212.298 266.990,212.888 266.000 C 214.750 262.878,219.970 257.797,223.619 255.553 C 224.829 254.809,226.175 253.973,226.610 253.695 C 228.369 252.571,231.145 251.498,233.673 250.964 C 235.144 250.654,236.821 250.220,237.399 250.000 C 239.075 249.363,246.590 249.501,248.262 250.200 C 249.051 250.530,250.119 250.800,250.634 250.800 C 251.970 250.800,256.049 252.364,257.026 253.250 C 257.480 253.663,258.070 254.000,258.338 254.000 C 259.016 254.000,262.604 256.893,264.130 258.670 C 264.828 259.484,265.794 260.531,266.275 260.997 C 266.756 261.463,267.887 263.455,268.790 265.422 C 269.692 267.390,270.640 269.360,270.895 269.800 C 271.402 270.674,271.859 273.401,272.252 277.894 C 272.405 279.654,272.730 280.976,273.079 281.266 C 274.132 282.140,305.255 281.798,305.943 280.905 C 306.582 280.074,306.286 267.742,305.561 265.000 C 305.328 264.120,304.991 262.500,304.813 261.400 C 304.634 260.300,304.214 258.860,303.879 258.200 C 303.544 257.540,302.863 255.650,302.366 254.000 C 300.480 247.743,293.967 237.496,288.739 232.558 C 283.285 227.406,273.247 220.800,270.874 220.800 C 270.667 220.800,270.274 220.530,270.000 220.200 C 269.726 219.870,269.209 219.599,268.851 219.598 C 268.493 219.596,267.707 219.338,267.106 219.024 C 265.958 218.426,261.605 217.467,256.200 216.623 C 254.440 216.348,252.493 215.915,251.874 215.661 C 250.451 215.078,241.751 215.098,240.400 215.687 M336.400 360.183 C 335.850 360.507,334.967 360.778,334.439 360.786 C 331.281 360.832,324.496 366.658,323.572 370.116 C 323.324 371.042,322.939 372.023,322.715 372.296 C 322.488 372.573,322.316 374.911,322.326 377.608 C 322.348 383.810,324.374 388.364,328.462 391.400 C 331.854 393.919,332.166 394.064,336.600 395.189 C 344.333 397.152,354.269 391.174,356.661 383.118 C 357.527 380.202,357.045 371.195,355.949 369.822 C 354.740 368.307,353.671 366.850,353.073 365.899 C 352.444 364.899,351.028 363.796,347.981 361.934 C 345.071 360.154,338.212 359.117,336.400 360.183 " stroke="none" fill="#000000" fill-rule="evenodd"></path><path id="path1" d="M143.049 11.815 C 142.912 12.173,142.830 13.756,142.868 15.333 L 142.935 18.200 143.181 14.800 C 143.446 11.135,143.432 10.819,143.049 11.815 M175.865 11.600 C 176.120 11.930,176.408 12.740,176.505 13.400 L 176.680 14.600 176.740 13.349 C 176.777 12.577,176.532 11.888,176.100 11.549 C 175.491 11.071,175.460 11.078,175.865 11.600 M299.673 11.499 C 304.004 11.564,311.204 11.564,315.673 11.500 C 320.143 11.435,316.600 11.382,307.800 11.382 C 299.000 11.382,295.343 11.435,299.673 11.499 M324.687 13.266 C 324.929 16.197,325.132 16.595,325.162 14.200 C 325.176 13.100,325.035 11.960,324.849 11.666 C 324.651 11.354,324.584 12.018,324.687 13.266 M356.984 11.627 C 356.579 12.282,356.902 12.317,358.000 11.739 C 358.959 11.233,358.964 11.212,358.124 11.206 C 357.642 11.203,357.129 11.392,356.984 11.627 M389.576 11.577 C 389.958 11.818,390.140 12.593,390.115 13.871 L 390.076 15.800 390.388 14.000 C 390.700 12.199,390.363 11.194,389.451 11.206 C 389.203 11.209,389.259 11.376,389.576 11.577 M356.542 16.200 C 356.541 18.180,356.608 19.040,356.692 18.112 C 356.776 17.184,356.777 15.564,356.695 14.512 C 356.612 13.460,356.543 14.220,356.542 16.200 M324.454 17.467 C 324.425 17.944,324.296 18.664,324.170 19.067 C 323.952 19.761,323.964 19.762,324.396 19.088 C 324.647 18.697,324.775 17.977,324.681 17.488 C 324.509 16.601,324.509 16.601,324.454 17.467 M290.531 19.800 C 290.533 21.340,290.605 21.921,290.692 21.091 C 290.779 20.261,290.777 19.001,290.689 18.291 C 290.600 17.581,290.529 18.260,290.531 19.800 M176.114 19.400 C 176.117 20.500,176.195 20.903,176.287 20.295 C 176.379 19.686,176.377 18.786,176.282 18.295 C 176.187 17.803,176.111 18.300,176.114 19.400 M389.742 21.400 C 389.741 23.380,389.808 24.240,389.892 23.312 C 389.976 22.384,389.977 20.764,389.895 19.712 C 389.812 18.660,389.743 19.420,389.742 21.400 M323.746 24.200 C 323.747 26.400,323.814 27.249,323.895 26.087 C 323.976 24.924,323.976 23.124,323.893 22.087 C 323.811 21.049,323.745 22.000,323.746 24.200 M355.850 22.450 C 355.517 24.117,355.840 24.440,356.200 22.800 C 356.352 22.109,356.393 21.459,356.291 21.358 C 356.189 21.256,355.991 21.747,355.850 22.450 M175.450 24.066 C 175.027 28.242,174.802 32.531,175.017 32.316 C 175.299 32.034,176.087 22.354,175.848 22.114 C 175.748 22.014,175.569 22.893,175.450 24.066 M355.340 28.000 C 355.340 29.870,355.409 30.635,355.493 29.700 C 355.577 28.765,355.577 27.235,355.493 26.300 C 355.409 25.365,355.340 26.130,355.340 28.000 M141.701 27.000 C 141.705 27.880,141.787 28.193,141.883 27.695 C 141.979 27.198,141.975 26.478,141.875 26.095 C 141.775 25.713,141.696 26.120,141.701 27.000 M289.499 31.400 C 289.334 33.600,289.116 36.210,289.015 37.200 C 288.915 38.190,289.096 37.560,289.417 35.800 C 289.739 34.040,289.957 31.430,289.901 30.000 C 289.807 27.586,289.779 27.686,289.499 31.400 M388.540 30.800 C 388.540 32.670,388.609 33.435,388.693 32.500 C 388.777 31.565,388.777 30.035,388.693 29.100 C 388.609 28.165,388.540 28.930,388.540 30.800 M323.301 29.800 C 323.305 30.680,323.387 30.993,323.483 30.495 C 323.579 29.998,323.575 29.278,323.475 28.895 C 323.375 28.513,323.296 28.920,323.301 29.800 M141.340 32.800 C 141.340 34.670,141.409 35.435,141.493 34.500 C 141.577 33.565,141.577 32.035,141.493 31.100 C 141.409 30.165,141.340 30.930,141.340 32.800 M174.537 36.600 C 174.539 38.360,174.609 39.030,174.693 38.089 C 174.778 37.149,174.777 35.709,174.691 34.889 C 174.605 34.070,174.536 34.840,174.537 36.600 M354.200 36.400 C 354.048 37.091,354.007 37.741,354.109 37.842 C 354.211 37.944,354.409 37.453,354.550 36.750 C 354.883 35.083,354.560 34.760,354.200 36.400 M322.867 36.450 C 322.830 37.027,322.705 38.108,322.589 38.850 C 322.396 40.086,322.415 40.117,322.808 39.214 C 323.045 38.671,323.170 37.591,323.086 36.814 C 322.977 35.792,322.916 35.691,322.867 36.450 M387.400 40.400 C 387.246 41.310,387.204 42.138,387.307 42.240 C 387.410 42.343,387.613 41.677,387.760 40.760 C 387.907 39.843,387.948 39.015,387.853 38.920 C 387.758 38.824,387.554 39.490,387.400 40.400 M140.101 41.000 C 140.105 41.880,140.187 42.193,140.283 41.695 C 140.379 41.198,140.375 40.478,140.275 40.095 C 140.175 39.713,140.096 40.120,140.101 41.000 M353.742 43.000 C 353.741 44.980,353.808 45.840,353.892 44.912 C 353.976 43.984,353.977 42.364,353.895 41.312 C 353.812 40.260,353.743 41.020,353.742 43.000 M173.678 41.674 C 173.391 42.651,173.222 44.520,173.302 45.826 L 173.449 48.200 173.524 45.474 C 173.566 43.974,173.791 42.390,174.025 41.953 C 174.259 41.516,174.394 40.874,174.325 40.527 C 174.256 40.180,173.965 40.696,173.678 41.674 M322.120 43.200 C 322.120 44.410,322.195 44.905,322.287 44.300 C 322.378 43.695,322.378 42.705,322.287 42.100 C 322.195 41.495,322.120 41.990,322.120 43.200 M140.093 44.000 C 140.093 44.770,140.175 45.085,140.276 44.700 C 140.376 44.315,140.376 43.685,140.276 43.300 C 140.175 42.915,140.093 43.230,140.093 44.000 M234.614 45.506 C 228.461 45.565,223.295 45.745,223.133 45.906 C 222.972 46.068,230.160 46.200,239.108 46.200 L 255.376 46.200 255.882 47.200 C 256.184 47.796,256.391 47.948,256.394 47.576 C 256.414 45.422,255.242 45.310,234.614 45.506 M287.800 48.000 C 287.648 48.691,287.607 49.341,287.709 49.442 C 287.811 49.544,288.009 49.053,288.150 48.350 C 288.483 46.683,288.160 46.360,287.800 48.000 M139.291 48.900 C 138.610 50.784,138.704 51.294,139.426 49.630 C 139.753 48.877,139.966 48.099,139.901 47.902 C 139.835 47.705,139.560 48.154,139.291 48.900 M353.056 49.445 C 352.915 50.472,352.826 52.592,352.857 54.156 C 352.906 56.604,352.960 56.361,353.243 52.419 C 353.586 47.649,353.496 46.231,353.056 49.445 M255.853 50.036 C 255.714 50.731,255.621 51.773,255.647 52.350 C 255.672 52.928,255.855 52.427,256.052 51.239 C 256.437 48.921,256.273 47.934,255.853 50.036 M386.901 50.600 C 386.905 51.480,386.987 51.793,387.083 51.295 C 387.179 50.798,387.175 50.078,387.075 49.695 C 386.975 49.313,386.896 49.720,386.901 50.600 M321.236 51.236 C 320.966 52.139,320.818 52.952,320.908 53.042 C 320.998 53.132,321.293 52.466,321.564 51.564 C 321.834 50.661,321.982 49.848,321.892 49.758 C 321.802 49.668,321.507 50.334,321.236 51.236 M222.101 51.400 C 222.105 52.280,222.187 52.593,222.283 52.095 C 222.379 51.598,222.375 50.878,222.275 50.495 C 222.175 50.113,222.096 50.520,222.101 51.400 M172.629 51.429 C 172.481 52.015,172.438 52.572,172.532 52.666 C 172.627 52.760,172.824 52.358,172.971 51.771 C 173.119 51.185,173.162 50.628,173.068 50.534 C 172.973 50.440,172.776 50.842,172.629 51.429 M287.340 54.000 C 287.340 55.870,287.409 56.635,287.493 55.700 C 287.577 54.765,287.577 53.235,287.493 52.300 C 287.409 51.365,287.340 52.130,287.340 54.000 M386.477 55.200 C 386.430 56.850,386.304 58.920,386.197 59.800 L 386.003 61.400 386.418 60.083 C 386.645 59.358,386.771 57.288,386.697 55.483 L 386.563 52.200 386.477 55.200 M172.128 55.600 C 172.128 57.030,172.201 57.615,172.289 56.900 C 172.378 56.185,172.378 55.015,172.289 54.300 C 172.201 53.585,172.128 54.170,172.128 55.600 M221.674 55.450 C 221.633 56.578,221.511 58.108,221.401 58.850 L 221.203 60.200 221.621 58.868 C 221.851 58.135,221.974 56.605,221.894 55.468 L 221.748 53.400 221.674 55.450 M320.542 57.400 C 320.541 59.380,320.608 60.240,320.692 59.312 C 320.776 58.384,320.777 56.764,320.695 55.712 C 320.612 54.660,320.543 55.420,320.542 57.400 M255.277 57.600 C 255.229 59.470,255.096 61.450,254.983 62.000 L 254.777 63.000 255.203 62.026 C 255.437 61.490,255.569 59.510,255.497 57.626 L 255.365 54.200 255.277 57.600 M138.501 57.000 C 138.505 57.880,138.587 58.193,138.683 57.695 C 138.779 57.198,138.775 56.478,138.675 56.095 C 138.575 55.713,138.496 56.120,138.501 57.000 M352.493 58.800 C 352.493 59.570,352.575 59.885,352.676 59.500 C 352.776 59.115,352.776 58.485,352.676 58.100 C 352.575 57.715,352.493 58.030,352.493 58.800 M286.433 60.089 C 286.170 61.030,286.020 63.060,286.099 64.600 L 286.243 67.400 286.322 64.360 C 286.365 62.688,286.601 60.743,286.846 60.039 C 287.092 59.335,287.207 58.673,287.101 58.568 C 286.996 58.463,286.696 59.147,286.433 60.089 M137.859 60.288 C 137.721 61.119,137.633 62.970,137.663 64.400 C 137.709 66.656,137.757 66.470,138.021 63.000 C 138.341 58.796,138.278 57.749,137.859 60.288 M171.693 61.200 C 171.693 61.970,171.775 62.285,171.876 61.900 C 171.976 61.515,171.976 60.885,171.876 60.500 C 171.775 60.115,171.693 60.430,171.693 61.200 M352.146 64.600 C 352.147 66.800,352.214 67.649,352.295 66.487 C 352.376 65.324,352.376 63.524,352.293 62.487 C 352.211 61.449,352.145 62.400,352.146 64.600 M220.940 64.400 C 220.940 66.270,221.009 67.035,221.093 66.100 C 221.177 65.165,221.177 63.635,221.093 62.700 C 221.009 61.765,220.940 62.530,220.940 64.400 M385.701 63.400 C 385.705 64.280,385.787 64.593,385.883 64.095 C 385.979 63.598,385.975 62.878,385.875 62.495 C 385.775 62.113,385.696 62.520,385.701 63.400 M319.850 63.650 C 319.517 65.317,319.840 65.640,320.200 64.000 C 320.352 63.309,320.393 62.659,320.291 62.558 C 320.189 62.456,319.991 62.947,319.850 63.650 M171.334 65.600 C 171.334 67.250,171.405 67.925,171.491 67.100 C 171.578 66.275,171.578 64.925,171.491 64.100 C 171.405 63.275,171.334 63.950,171.334 65.600 M254.142 68.600 C 254.141 70.580,254.208 71.440,254.292 70.512 C 254.376 69.584,254.377 67.964,254.295 66.912 C 254.212 65.860,254.143 66.620,254.142 68.600 M319.331 71.000 C 319.333 72.540,319.405 73.121,319.492 72.291 C 319.579 71.461,319.577 70.201,319.489 69.491 C 319.400 68.781,319.329 69.460,319.331 71.000 M170.633 70.833 C 170.483 71.966,170.441 72.974,170.539 73.072 C 170.637 73.171,170.845 72.328,171.000 71.200 C 171.155 70.072,171.198 69.064,171.094 68.961 C 170.991 68.858,170.784 69.700,170.633 70.833 M220.064 70.344 C 219.809 71.196,219.613 72.142,219.628 72.446 C 219.643 72.751,219.924 72.126,220.252 71.058 C 220.580 69.990,220.777 69.043,220.689 68.955 C 220.600 68.867,220.319 69.492,220.064 70.344 M351.400 70.000 C 351.248 70.691,351.214 71.347,351.324 71.457 C 351.434 71.567,351.648 71.091,351.800 70.400 C 351.952 69.709,351.986 69.053,351.876 68.943 C 351.766 68.833,351.552 69.309,351.400 70.000 M285.456 71.045 C 285.315 72.072,285.226 74.102,285.258 75.556 C 285.305 77.702,285.375 77.372,285.630 73.805 C 285.961 69.164,285.883 67.926,285.456 71.045 M136.748 73.600 C 136.613 75.470,136.387 77.540,136.246 78.200 C 136.060 79.067,136.161 78.956,136.609 77.800 C 137.024 76.730,137.190 75.207,137.111 73.200 L 136.993 70.200 136.748 73.600 M385.293 72.000 C 385.293 72.770,385.375 73.085,385.476 72.700 C 385.576 72.315,385.576 71.685,385.476 71.300 C 385.375 70.915,385.293 71.230,385.293 72.000 M350.914 73.800 C 350.917 74.900,350.995 75.303,351.087 74.695 C 351.179 74.086,351.177 73.186,351.082 72.695 C 350.987 72.203,350.911 72.700,350.914 73.800 M253.264 74.344 C 253.009 75.196,252.813 76.142,252.828 76.446 C 252.843 76.751,253.124 76.126,253.452 75.058 C 253.780 73.990,253.977 73.043,253.889 72.955 C 253.800 72.867,253.519 73.492,253.264 74.344 M384.649 74.215 C 384.512 74.573,384.415 75.166,384.434 75.533 C 384.453 75.900,384.627 75.669,384.821 75.020 C 385.198 73.758,385.065 73.133,384.649 74.215 M318.909 75.600 C 318.909 76.590,318.987 76.995,319.082 76.500 C 319.178 76.005,319.178 75.195,319.082 74.700 C 318.987 74.205,318.909 74.610,318.909 75.600 M350.901 77.400 C 350.905 78.280,350.987 78.593,351.083 78.095 C 351.179 77.598,351.175 76.878,351.075 76.495 C 350.975 76.113,350.896 76.520,350.901 77.400 M384.146 80.600 C 384.147 82.800,384.214 83.649,384.295 82.487 C 384.376 81.324,384.376 79.524,384.293 78.487 C 384.211 77.449,384.145 78.400,384.146 80.600 M284.672 79.804 C 284.527 80.682,284.429 81.940,284.453 82.600 C 284.478 83.260,284.655 82.720,284.848 81.400 C 285.240 78.715,285.085 77.307,284.672 79.804 M169.905 80.000 C 169.754 80.770,169.530 81.850,169.407 82.400 C 169.284 82.950,169.464 82.680,169.806 81.800 C 170.148 80.920,170.372 79.840,170.304 79.400 C 170.221 78.874,170.085 79.080,169.905 80.000 M135.740 83.600 C 135.740 85.470,135.809 86.235,135.893 85.300 C 135.977 84.365,135.977 82.835,135.893 81.900 C 135.809 80.965,135.740 81.730,135.740 83.600 M218.600 82.000 C 218.448 82.691,218.407 83.341,218.509 83.442 C 218.611 83.544,218.809 83.053,218.950 82.350 C 219.283 80.683,218.960 80.360,218.600 82.000 M350.446 81.267 C 350.421 81.634,350.296 82.264,350.170 82.667 C 349.952 83.362,349.963 83.363,350.397 82.687 C 350.648 82.296,350.773 81.666,350.673 81.287 C 350.511 80.668,350.488 80.666,350.446 81.267 M252.049 86.200 C 251.764 88.180,251.604 90.700,251.693 91.800 C 251.845 93.663,251.861 93.620,251.928 91.173 C 251.968 89.729,252.191 87.513,252.425 86.249 C 252.658 84.986,252.786 83.648,252.708 83.276 C 252.630 82.904,252.334 84.220,252.049 86.200 M349.709 85.200 C 349.709 86.190,349.787 86.595,349.882 86.100 C 349.978 85.605,349.978 84.795,349.882 84.300 C 349.787 83.805,349.709 84.210,349.709 85.200 M168.940 87.200 C 168.940 89.070,169.009 89.835,169.093 88.900 C 169.177 87.965,169.177 86.435,169.093 85.500 C 169.009 84.565,168.940 85.330,168.940 87.200 M383.654 86.267 C 383.625 86.744,383.496 87.464,383.370 87.867 C 383.152 88.561,383.164 88.562,383.596 87.888 C 383.847 87.497,383.975 86.777,383.881 86.288 C 383.709 85.401,383.709 85.401,383.654 86.267 M317.701 87.400 C 317.705 88.280,317.787 88.593,317.883 88.095 C 317.979 87.598,317.975 86.878,317.875 86.495 C 317.775 86.113,317.696 86.520,317.701 87.400 M134.818 88.756 C 134.549 89.405,134.414 90.266,134.518 90.668 C 134.667 91.242,134.717 91.201,134.754 90.474 C 134.779 89.964,134.995 89.184,135.232 88.739 C 135.470 88.295,135.584 87.851,135.486 87.753 C 135.388 87.655,135.088 88.106,134.818 88.756 M218.101 89.800 C 218.105 90.680,218.187 90.993,218.283 90.495 C 218.379 89.998,218.375 89.278,218.275 88.895 C 218.175 88.513,218.096 88.920,218.101 89.800 M283.667 91.067 C 283.396 92.079,283.245 92.979,283.332 93.065 C 283.419 93.152,283.719 92.403,284.000 91.400 C 284.281 90.397,284.431 89.498,284.335 89.401 C 284.238 89.305,283.937 90.054,283.667 91.067 M382.948 93.200 C 382.948 95.510,383.014 96.455,383.095 95.300 C 383.176 94.145,383.176 92.255,383.095 91.100 C 383.014 89.945,382.948 90.890,382.948 93.200 M168.229 92.229 C 168.081 92.815,168.038 93.372,168.132 93.466 C 168.227 93.560,168.424 93.158,168.571 92.571 C 168.719 91.985,168.762 91.428,168.668 91.334 C 168.573 91.240,168.376 91.642,168.229 92.229 M217.720 93.600 C 217.720 94.810,217.795 95.305,217.887 94.700 C 217.978 94.095,217.978 93.105,217.887 92.500 C 217.795 91.895,217.720 92.390,217.720 93.600 M349.293 93.200 C 349.293 93.970,349.375 94.285,349.476 93.900 C 349.576 93.515,349.576 92.885,349.476 92.500 C 349.375 92.115,349.293 92.430,349.293 93.200 M167.737 97.000 C 167.739 98.760,167.809 99.430,167.893 98.489 C 167.978 97.549,167.977 96.109,167.891 95.289 C 167.805 94.470,167.736 95.240,167.737 97.000 M251.293 95.200 C 251.293 95.970,251.375 96.285,251.476 95.900 C 251.576 95.515,251.576 94.885,251.476 94.500 C 251.375 94.115,251.293 94.430,251.293 95.200 M348.767 96.100 C 348.501 103.245,348.507 104.467,348.802 103.000 C 349.151 101.259,349.297 95.200,348.990 95.200 C 348.885 95.200,348.785 95.605,348.767 96.100 M282.879 98.474 C 282.836 100.165,282.604 102.055,282.365 102.674 C 281.819 104.084,281.255 109.613,281.684 109.348 C 281.858 109.241,282.000 108.296,282.000 107.249 C 282.000 106.202,282.278 104.410,282.617 103.266 C 283.008 101.952,283.184 100.123,283.097 98.294 L 282.959 95.400 282.879 98.474 M133.680 99.124 C 133.416 100.402,133.227 102.517,133.260 103.824 L 133.321 106.200 133.606 103.200 C 133.764 101.550,134.029 99.435,134.197 98.500 C 134.656 95.944,134.231 96.456,133.680 99.124 M250.942 100.600 C 250.941 102.580,251.008 103.440,251.092 102.512 C 251.176 101.584,251.177 99.964,251.095 98.912 C 251.012 97.860,250.943 98.620,250.942 100.600 M382.501 99.000 C 382.505 99.880,382.587 100.193,382.683 99.695 C 382.779 99.198,382.775 98.478,382.675 98.095 C 382.575 97.713,382.496 98.120,382.501 99.000 M217.000 100.400 C 216.848 101.091,216.807 101.741,216.909 101.842 C 217.011 101.944,217.209 101.453,217.350 100.750 C 217.683 99.083,217.360 98.760,217.000 100.400 M316.140 103.600 C 316.140 105.470,316.209 106.235,316.293 105.300 C 316.377 104.365,316.377 102.835,316.293 101.900 C 316.209 100.965,316.140 101.730,316.140 103.600 M167.045 104.100 C 166.606 109.131,166.498 112.180,166.788 111.400 C 167.092 110.579,167.657 101.600,167.404 101.600 C 167.327 101.600,167.165 102.725,167.045 104.100 M382.082 104.244 C 382.037 105.808,381.911 107.968,381.802 109.044 C 381.620 110.838,381.638 110.891,382.017 109.685 C 382.245 108.962,382.371 106.802,382.298 104.885 C 382.166 101.434,382.164 101.428,382.082 104.244 M216.540 107.200 C 216.540 109.070,216.609 109.835,216.693 108.900 C 216.777 107.965,216.777 106.435,216.693 105.500 C 216.609 104.565,216.540 105.330,216.540 107.200 M250.229 105.429 C 250.081 106.015,250.038 106.572,250.132 106.666 C 250.227 106.760,250.424 106.358,250.571 105.771 C 250.719 105.185,250.762 104.628,250.668 104.534 C 250.573 104.440,250.376 104.842,250.229 105.429 M132.893 108.400 C 132.893 109.170,132.975 109.485,133.076 109.100 C 133.176 108.715,133.176 108.085,133.076 107.700 C 132.975 107.315,132.893 107.630,132.893 108.400 M315.301 110.600 C 315.305 111.480,315.387 111.793,315.483 111.295 C 315.579 110.798,315.575 110.078,315.475 109.695 C 315.375 109.313,315.296 109.720,315.301 110.600 M132.537 113.400 C 132.539 115.160,132.609 115.830,132.693 114.889 C 132.778 113.949,132.777 112.509,132.691 111.689 C 132.605 110.870,132.536 111.640,132.537 113.400 M381.314 113.000 C 381.317 114.100,381.395 114.503,381.487 113.895 C 381.579 113.286,381.577 112.386,381.482 111.895 C 381.387 111.403,381.311 111.900,381.314 113.000 M166.093 113.600 C 166.093 114.370,166.175 114.685,166.276 114.300 C 166.376 113.915,166.376 113.285,166.276 112.900 C 166.175 112.515,166.093 112.830,166.093 113.600 M347.659 114.200 C 347.620 114.860,347.496 115.850,347.383 116.400 L 347.177 117.400 347.608 116.414 C 347.844 115.872,347.968 114.882,347.883 114.214 L 347.728 113.000 347.659 114.200 M314.909 117.200 C 314.909 118.190,314.987 118.595,315.082 118.100 C 315.178 117.605,315.178 116.795,315.082 116.300 C 314.987 115.805,314.909 116.210,314.909 117.200 M131.829 117.829 C 131.681 118.415,131.638 118.972,131.732 119.066 C 131.827 119.160,132.024 118.758,132.171 118.171 C 132.319 117.585,132.362 117.028,132.268 116.934 C 132.173 116.840,131.976 117.242,131.829 117.829 M214.665 121.400 C 214.307 123.631,213.989 126.769,214.219 125.800 C 214.997 122.528,215.275 120.829,215.112 120.353 C 215.007 120.049,214.806 120.520,214.665 121.400 M346.544 123.600 C 346.544 125.690,346.612 126.545,346.694 125.500 C 346.776 124.455,346.776 122.745,346.694 121.700 C 346.612 120.655,346.544 121.510,346.544 123.600 M380.711 121.200 C 380.571 121.970,380.348 123.140,380.214 123.800 C 380.062 124.548,380.211 124.349,380.610 123.273 C 380.961 122.323,381.185 121.153,381.107 120.673 C 381.001 120.020,380.901 120.154,380.711 121.200 M314.542 123.800 C 314.541 125.780,314.608 126.640,314.692 125.712 C 314.776 124.784,314.777 123.164,314.695 122.112 C 314.612 121.060,314.543 121.820,314.542 123.800 M131.331 124.200 C 131.333 125.740,131.405 126.321,131.492 125.491 C 131.579 124.661,131.577 123.401,131.489 122.691 C 131.400 121.981,131.329 122.660,131.331 124.200 M379.748 129.600 C 379.748 131.910,379.814 132.855,379.895 131.700 C 379.976 130.545,379.976 128.655,379.895 127.500 C 379.814 126.345,379.748 127.290,379.748 129.600 M164.534 128.800 C 164.534 130.450,164.605 131.125,164.691 130.300 C 164.778 129.475,164.778 128.125,164.691 127.300 C 164.605 126.475,164.534 127.150,164.534 128.800 M130.600 128.000 C 130.450 128.473,130.417 128.950,130.527 129.060 C 130.637 129.170,130.850 128.873,131.000 128.400 C 131.150 127.927,131.183 127.450,131.073 127.340 C 130.963 127.230,130.750 127.527,130.600 128.000 M345.829 129.429 C 345.681 130.015,345.638 130.572,345.732 130.666 C 345.827 130.760,346.024 130.358,346.171 129.771 C 346.319 129.185,346.362 128.628,346.268 128.534 C 346.173 128.440,345.976 128.842,345.829 129.429 M130.134 132.400 C 130.134 134.050,130.205 134.725,130.291 133.900 C 130.378 133.075,130.378 131.725,130.291 130.900 C 130.205 130.075,130.134 130.750,130.134 132.400 M213.575 131.900 C 213.562 132.285,213.420 133.903,213.260 135.495 C 213.101 137.087,213.089 138.257,213.234 138.095 C 213.558 137.734,214.103 131.200,213.809 131.200 C 213.694 131.200,213.589 131.515,213.575 131.900 M345.340 134.400 C 345.340 136.270,345.409 137.035,345.493 136.100 C 345.577 135.165,345.577 133.635,345.493 132.700 C 345.409 131.765,345.340 132.530,345.340 134.400 M163.822 133.422 C 163.672 134.225,163.628 134.962,163.726 135.060 C 163.824 135.157,164.027 134.581,164.178 133.778 C 164.328 132.975,164.372 132.238,164.274 132.140 C 164.176 132.043,163.973 132.619,163.822 133.422 M313.344 135.600 C 313.344 137.690,313.412 138.545,313.494 137.500 C 313.576 136.455,313.576 134.745,313.494 133.700 C 313.412 132.655,313.344 133.510,313.344 135.600 M379.018 136.218 C 378.865 137.239,378.830 138.163,378.940 138.273 C 379.050 138.383,379.265 137.639,379.418 136.618 C 379.571 135.598,379.606 134.673,379.496 134.563 C 379.386 134.453,379.171 135.198,379.018 136.218 M163.280 138.467 C 163.236 140.154,163.096 141.864,162.970 142.267 C 162.756 142.947,162.772 142.950,163.187 142.305 C 163.452 141.892,163.578 140.351,163.497 138.505 L 163.361 135.400 163.280 138.467 M129.232 140.676 C 129.214 141.598,129.342 142.441,129.516 142.548 C 129.690 142.656,129.767 142.082,129.687 141.272 C 129.469 139.058,129.267 138.795,129.232 140.676 M378.542 143.000 C 378.541 144.980,378.608 145.840,378.692 144.912 C 378.776 143.984,378.777 142.364,378.695 141.312 C 378.612 140.260,378.543 141.020,378.542 143.000 M312.355 141.675 L 311.726 143.400 278.963 143.600 C 247.359 143.793,245.193 143.878,245.206 144.924 C 245.210 145.208,245.365 145.158,245.591 144.800 C 245.922 144.277,250.210 144.174,278.882 144.000 L 311.794 143.800 312.518 142.262 C 312.916 141.417,313.184 140.551,313.113 140.338 C 313.042 140.125,312.700 140.726,312.355 141.675 M344.893 141.200 C 344.893 141.970,344.975 142.285,345.076 141.900 C 345.176 141.515,345.176 140.885,345.076 140.500 C 344.975 140.115,344.893 140.430,344.893 141.200 M138.100 143.100 C 142.445 143.164,149.555 143.164,153.900 143.100 C 158.245 143.035,154.690 142.982,146.000 142.982 C 137.310 142.982,133.755 143.035,138.100 143.100 M344.540 146.000 C 344.540 147.870,344.609 148.635,344.693 147.700 C 344.777 146.765,344.777 145.235,344.693 144.300 C 344.609 143.365,344.540 144.130,344.540 146.000 M244.480 146.080 C 244.216 146.344,244.021 146.929,244.046 147.380 C 244.092 148.183,244.097 148.184,244.289 147.400 C 244.398 146.960,244.669 146.375,244.892 146.100 C 245.410 145.462,245.112 145.448,244.480 146.080 M378.101 148.600 C 378.105 149.480,378.187 149.793,378.283 149.295 C 378.379 148.798,378.375 148.078,378.275 147.695 C 378.175 147.313,378.096 147.720,378.101 148.600 M242.811 150.571 C 242.585 151.165,242.408 151.955,242.418 152.326 C 242.427 152.697,242.689 152.287,243.000 151.415 C 243.630 149.646,243.457 148.871,242.811 150.571 M344.093 150.800 C 344.093 151.570,344.175 151.885,344.276 151.500 C 344.376 151.115,344.376 150.485,344.276 150.100 C 344.175 149.715,344.093 150.030,344.093 150.800 M377.737 154.200 C 377.739 155.960,377.809 156.630,377.893 155.689 C 377.978 154.749,377.977 153.309,377.891 152.489 C 377.805 151.670,377.736 152.440,377.737 154.200 M204.800 153.600 C 204.103 154.480,203.623 155.200,203.733 155.200 C 203.843 155.200,204.503 154.480,205.200 153.600 C 205.897 152.720,206.377 152.000,206.267 152.000 C 206.157 152.000,205.497 152.720,204.800 153.600 M343.693 154.000 C 343.693 154.770,343.775 155.085,343.876 154.700 C 343.976 154.315,343.976 153.685,343.876 153.300 C 343.775 152.915,343.693 153.230,343.693 154.000 M241.632 153.939 C 240.979 155.160,241.114 155.500,241.841 154.463 C 242.193 153.960,242.388 153.454,242.273 153.340 C 242.159 153.225,241.870 153.495,241.632 153.939 M200.000 158.200 C 199.255 158.750,198.815 159.199,199.022 159.198 C 199.428 159.196,201.949 157.238,201.578 157.214 C 201.455 157.206,200.745 157.650,200.000 158.200 M239.078 159.005 C 238.712 159.772,238.495 160.400,238.596 160.400 C 238.870 160.400,240.084 157.951,239.901 157.768 C 239.814 157.681,239.444 158.238,239.078 159.005 M195.405 161.439 C 194.307 162.187,193.546 162.800,193.713 162.800 C 194.160 162.800,197.091 160.900,197.390 160.416 C 197.736 159.856,197.691 159.879,195.405 161.439 M376.931 162.600 C 376.933 164.140,377.005 164.721,377.092 163.891 C 377.179 163.061,377.177 161.801,377.089 161.091 C 377.000 160.381,376.929 161.060,376.931 162.600 M343.246 162.467 C 343.221 162.834,343.096 163.464,342.970 163.867 C 342.752 164.562,342.763 164.563,343.197 163.887 C 343.448 163.496,343.573 162.866,343.473 162.487 C 343.311 161.868,343.288 161.866,343.246 162.467 M236.075 163.984 C 235.594 164.635,235.200 165.300,235.200 165.462 C 235.200 165.623,235.650 165.145,236.200 164.400 C 236.750 163.655,237.200 162.990,237.200 162.922 C 237.200 162.595,236.875 162.902,236.075 163.984 M96.600 166.344 C 87.864 169.230,82.000 179.473,84.572 187.354 C 87.768 197.145,92.977 201.140,102.600 201.180 C 106.918 201.199,108.748 200.741,111.400 198.981 C 116.476 195.613,119.604 190.783,120.213 185.373 C 121.002 178.377,116.398 170.257,109.901 167.184 C 107.385 165.993,99.222 165.478,96.600 166.344 M135.504 166.814 C 131.690 168.362,128.979 170.877,126.675 175.000 C 122.325 182.789,124.131 191.349,131.454 197.645 C 138.628 203.813,150.899 202.165,157.104 194.201 C 159.864 190.659,161.386 182.099,159.798 179.054 C 159.469 178.424,159.200 177.686,159.200 177.414 C 159.200 175.705,155.430 170.475,153.000 168.812 C 148.798 165.938,140.105 164.945,135.504 166.814 M233.584 167.886 C 232.884 168.923,232.592 169.539,232.935 169.254 C 233.563 168.733,235.310 166.000,235.015 166.000 C 234.928 166.000,234.284 166.849,233.584 167.886 M178.215 166.776 C 178.076 167.001,178.591 167.059,179.491 166.920 C 181.500 166.610,181.661 166.400,179.890 166.400 C 179.097 166.400,178.343 166.569,178.215 166.776 M342.137 172.200 C 342.139 173.960,342.209 174.630,342.293 173.689 C 342.378 172.749,342.377 171.309,342.291 170.489 C 342.205 169.670,342.136 170.440,342.137 172.200 M264.483 170.340 C 264.194 170.524,264.989 170.596,266.283 170.504 C 269.442 170.279,269.858 170.068,267.200 170.038 C 265.990 170.024,264.767 170.160,264.483 170.340 M279.505 170.283 C 280.002 170.379,280.722 170.375,281.105 170.275 C 281.487 170.175,281.080 170.096,280.200 170.101 C 279.320 170.105,279.007 170.187,279.505 170.283 M283.762 170.522 C 285.618 171.880,284.445 172.991,281.019 173.118 C 277.928 173.233,276.787 173.621,276.812 174.549 C 276.819 174.797,277.008 174.685,277.232 174.300 C 277.565 173.729,278.209 173.600,280.740 173.600 C 282.618 173.600,284.029 173.411,284.320 173.120 C 285.255 172.185,284.641 170.000,283.444 170.000 C 283.225 170.000,283.369 170.235,283.762 170.522 M287.680 170.480 C 287.416 170.744,287.200 171.138,287.200 171.356 C 287.200 171.575,287.425 171.458,287.700 171.097 C 287.975 170.736,288.920 170.372,289.800 170.288 L 291.400 170.134 289.780 170.067 C 288.889 170.030,287.944 170.216,287.680 170.480 M230.399 171.700 C 229.810 172.504,229.713 172.784,230.145 172.433 C 230.801 171.900,231.793 170.400,231.489 170.400 C 231.413 170.400,230.922 170.985,230.399 171.700 M292.084 171.003 C 292.240 171.245,292.544 171.883,292.759 172.422 C 293.006 173.040,293.159 173.159,293.175 172.744 C 293.189 172.384,292.885 171.745,292.500 171.325 C 292.115 170.906,291.928 170.760,292.084 171.003 M177.246 173.267 C 177.221 173.634,177.096 174.264,176.970 174.667 C 176.752 175.362,176.763 175.363,177.197 174.687 C 177.448 174.296,177.573 173.666,177.473 173.287 C 177.311 172.668,177.288 172.666,177.246 173.267 M264.538 173.294 C 264.792 173.456,266.359 173.591,268.020 173.594 C 272.235 173.602,272.000 172.951,272.000 184.604 C 272.000 193.090,272.096 194.767,272.622 195.424 C 273.223 196.174,273.230 196.170,272.822 195.326 C 272.560 194.783,272.400 190.586,272.400 184.240 C 272.400 174.923,272.339 173.996,271.700 173.657 C 270.874 173.219,263.860 172.863,264.538 173.294 M227.200 175.400 C 226.005 176.610,225.169 177.600,225.342 177.600 C 225.515 177.600,225.869 177.364,226.129 177.075 C 226.388 176.786,227.312 175.796,228.181 174.875 C 230.495 172.424,229.739 172.829,227.200 175.400 M288.830 175.200 C 288.828 175.776,289.957 178.066,289.986 177.546 C 289.994 177.406,289.737 176.686,289.416 175.946 C 289.094 175.206,288.831 174.870,288.830 175.200 M276.493 184.726 C 276.434 190.919,276.238 194.770,275.953 195.326 C 275.544 196.127,275.561 196.148,276.160 195.579 C 276.738 195.030,276.801 193.789,276.700 184.979 L 276.585 175.000 276.493 184.726 M375.342 178.600 C 375.341 180.580,375.408 181.440,375.492 180.512 C 375.576 179.584,375.577 177.964,375.495 176.912 C 375.412 175.860,375.343 176.620,375.342 178.600 M341.247 177.377 C 341.001 178.355,340.830 180.920,340.867 183.077 L 340.934 187.000 341.223 182.200 C 341.383 179.560,341.644 176.995,341.803 176.500 C 341.963 176.005,342.004 175.600,341.894 175.600 C 341.785 175.600,341.494 176.400,341.247 177.377 M303.254 177.467 C 303.225 177.944,303.096 178.664,302.970 179.067 C 302.752 179.761,302.764 179.762,303.196 179.088 C 303.447 178.697,303.575 177.977,303.481 177.488 C 303.309 176.601,303.309 176.601,303.254 177.467 M223.687 179.100 C 222.730 180.035,222.714 180.081,223.581 179.406 C 225.288 178.076,225.369 178.000,225.086 178.000 C 224.936 178.000,224.306 178.495,223.687 179.100 M307.115 179.810 C 306.992 180.245,306.769 180.960,306.620 181.400 C 306.471 181.840,306.642 181.694,307.000 181.076 C 307.358 180.458,307.581 179.742,307.495 179.486 C 307.410 179.230,307.239 179.376,307.115 179.810 M176.093 183.200 C 176.093 183.970,176.175 184.285,176.276 183.900 C 176.376 183.515,176.376 182.885,176.276 182.500 C 176.175 182.115,176.093 182.430,176.093 183.200 M301.646 182.867 C 301.621 183.234,301.496 183.864,301.370 184.267 C 301.152 184.962,301.163 184.963,301.597 184.287 C 301.848 183.896,301.973 183.266,301.873 182.887 C 301.711 182.268,301.688 182.266,301.646 182.867 M305.728 183.900 C 305.314 185.228,305.325 185.311,305.830 184.624 C 306.308 183.973,306.639 182.400,306.298 182.400 C 306.242 182.400,305.985 183.075,305.728 183.900 M217.400 184.000 C 216.740 184.437,216.380 184.792,216.600 184.788 C 217.001 184.782,219.176 183.223,218.800 183.212 C 218.690 183.208,218.060 183.563,217.400 184.000 M292.324 184.200 C 292.526 184.640,292.792 185.270,292.914 185.600 C 293.107 186.118,293.141 186.115,293.168 185.576 C 293.186 185.234,292.920 184.604,292.578 184.176 C 291.966 183.412,291.962 183.413,292.324 184.200 M374.676 184.410 C 374.530 184.955,374.428 185.940,374.449 186.600 C 374.480 187.557,374.559 187.436,374.842 186.000 C 375.229 184.033,375.102 182.817,374.676 184.410 M297.218 184.706 C 297.159 186.406,298.231 188.400,299.197 188.388 C 300.148 188.376,300.158 188.352,299.400 187.929 C 298.302 187.315,298.388 187.433,297.781 185.730 C 297.481 184.888,297.227 184.428,297.218 184.706 M175.471 187.202 C 175.326 188.411,175.230 190.300,175.258 191.400 C 175.293 192.734,175.423 192.135,175.651 189.600 C 176.024 185.437,175.893 183.686,175.471 187.202 M340.260 190.090 C 340.121 191.251,340.031 193.460,340.061 195.000 C 340.104 197.218,340.183 196.805,340.439 193.014 C 340.778 187.982,340.689 186.521,340.260 190.090 M203.400 192.378 C 202.520 192.795,201.980 193.136,202.200 193.138 C 202.746 193.142,205.902 191.664,205.400 191.640 C 205.180 191.630,204.280 191.962,203.400 192.378 M374.114 193.400 C 374.117 194.500,374.195 194.903,374.287 194.295 C 374.379 193.686,374.377 192.786,374.282 192.295 C 374.187 191.803,374.111 192.300,374.114 193.400 M301.632 194.480 C 301.614 194.854,301.285 195.344,300.900 195.568 C 300.515 195.792,300.403 195.981,300.651 195.988 C 301.311 196.006,302.109 194.909,301.869 194.313 C 301.737 193.983,301.652 194.042,301.632 194.480 M373.693 197.600 C 373.693 198.370,373.775 198.685,373.876 198.300 C 373.976 197.915,373.976 197.285,373.876 196.900 C 373.775 196.515,373.693 196.830,373.693 197.600 M184.905 197.887 C 185.514 197.979,186.414 197.977,186.905 197.882 C 187.397 197.787,186.900 197.711,185.800 197.714 C 184.700 197.717,184.297 197.795,184.905 197.887 M93.174 215.191 C 90.790 215.381,90.437 215.529,89.329 216.800 C 87.594 218.790,83.429 223.946,80.483 227.750 C 79.099 229.537,77.665 231.360,77.296 231.800 C 76.928 232.240,75.741 233.770,74.660 235.200 C 73.578 236.630,72.222 238.369,71.647 239.064 C 69.846 241.239,68.376 243.104,62.273 250.966 C 59.013 255.165,55.838 259.230,55.219 260.000 C 54.599 260.770,52.316 263.662,50.146 266.428 C 47.976 269.193,45.534 272.253,44.720 273.228 C 41.897 276.607,36.595 283.431,35.539 285.045 C 34.955 285.936,33.914 287.281,33.226 288.033 C 32.538 288.785,31.485 290.120,30.887 291.000 C 30.289 291.880,29.597 292.780,29.348 293.000 C 29.100 293.220,27.685 295.020,26.204 297.000 C 24.723 298.980,22.840 301.320,22.018 302.200 C 21.196 303.080,20.104 304.430,19.590 305.200 C 19.076 305.970,18.422 306.870,18.135 307.200 C 17.849 307.530,17.162 308.321,16.608 308.958 C 16.053 309.596,15.600 310.227,15.600 310.361 C 15.600 310.496,14.795 311.586,13.812 312.785 C 12.537 314.340,11.971 315.428,11.837 316.582 C 11.734 317.472,11.272 321.710,10.811 326.000 C 10.350 330.290,9.788 334.970,9.561 336.400 C 7.643 348.508,7.844 349.198,13.290 349.207 C 98.869 349.360,103.228 349.398,103.629 350.000 C 104.134 350.759,103.736 359.292,102.967 364.200 C 102.296 368.485,102.253 370.577,102.814 371.626 C 103.426 372.769,134.586 372.838,135.950 371.700 C 136.821 370.972,136.959 370.082,137.985 358.600 C 138.468 353.194,138.831 350.597,139.186 350.023 C 139.414 349.653,163.442 349.529,244.641 349.479 L 349.800 349.414 256.240 349.306 C 187.897 349.227,162.534 349.078,162.140 348.750 C 161.441 348.170,161.451 345.516,162.165 341.431 C 162.476 339.654,162.937 335.230,163.189 331.600 C 163.441 327.970,163.835 324.142,164.065 323.093 C 164.295 322.044,164.599 319.884,164.742 318.293 L 165.000 315.400 170.860 315.290 C 177.261 315.169,178.580 314.736,176.988 313.280 C 176.284 312.637,176.273 312.639,176.779 313.310 C 177.073 313.700,177.184 314.150,177.025 314.310 C 176.571 314.766,164.367 315.019,153.400 314.800 L 143.400 314.600 143.285 310.915 C 143.211 308.540,143.389 306.386,143.785 304.857 C 144.123 303.552,144.401 301.341,144.402 299.942 C 144.404 298.544,144.592 296.320,144.821 295.000 C 145.049 293.680,145.418 290.530,145.640 288.000 C 146.545 277.692,147.516 268.600,148.205 264.000 C 149.032 258.477,149.571 253.056,150.016 245.800 C 150.232 242.280,150.596 238.140,150.825 236.600 C 151.054 235.060,151.496 231.730,151.806 229.200 C 152.117 226.670,152.550 223.790,152.768 222.800 C 153.286 220.452,153.310 215.715,152.806 215.404 C 152.317 215.101,96.787 214.903,93.174 215.191 M239.000 215.814 C 237.385 216.554,238.351 216.555,240.054 215.816 C 240.794 215.494,241.130 215.239,240.800 215.248 C 240.470 215.257,239.660 215.512,239.000 215.814 M252.346 215.816 C 253.086 216.137,253.896 216.393,254.146 216.384 C 254.396 216.376,253.994 216.106,253.254 215.784 C 252.514 215.463,251.704 215.207,251.454 215.216 C 251.204 215.224,251.606 215.494,252.346 215.816 M233.500 216.682 C 233.995 216.778,234.805 216.778,235.300 216.682 C 235.795 216.587,235.390 216.509,234.400 216.509 C 233.410 216.509,233.005 216.587,233.500 216.682 M256.033 216.547 C 256.125 216.628,257.079 216.788,258.154 216.904 C 259.349 217.032,259.893 216.978,259.554 216.763 C 259.035 216.435,255.671 216.228,256.033 216.547 M261.400 217.600 C 263.092 218.031,264.544 218.031,263.200 217.600 C 262.650 217.424,261.750 217.283,261.200 217.287 C 260.302 217.294,260.322 217.326,261.400 217.600 M224.800 218.600 C 223.522 219.330,223.796 219.334,225.800 218.612 C 226.680 218.295,227.040 218.034,226.600 218.032 C 226.160 218.030,225.350 218.286,224.800 218.600 M265.400 218.285 C 265.840 218.391,266.371 218.640,266.580 218.839 C 266.789 219.037,267.138 219.200,267.356 219.200 C 267.575 219.200,267.404 218.936,266.976 218.613 C 266.549 218.290,265.840 218.041,265.400 218.059 L 264.600 218.093 265.400 218.285 M216.600 221.826 C 215.500 222.356,214.807 222.792,215.060 222.795 C 215.313 222.798,216.483 222.352,217.660 221.804 C 218.837 221.256,219.530 220.820,219.200 220.835 C 218.870 220.851,217.700 221.297,216.600 221.826 M278.437 224.563 C 280.286 225.753,282.340 227.122,283.000 227.606 L 284.200 228.485 282.942 227.343 C 281.573 226.100,275.927 222.400,275.399 222.400 C 275.220 222.400,276.587 223.373,278.437 224.563 M369.482 228.282 C 369.772 228.488,370.023 229.981,370.110 232.013 L 370.254 235.400 370.227 231.832 C 370.206 229.016,370.074 228.230,369.600 228.102 C 369.174 227.986,369.140 228.039,369.482 228.282 M285.600 229.664 C 287.526 231.595,290.832 234.398,289.600 233.055 C 288.830 232.216,287.480 230.974,286.600 230.296 C 285.720 229.618,285.270 229.333,285.600 229.664 M336.101 230.600 C 336.105 231.480,336.187 231.793,336.283 231.295 C 336.379 230.798,336.375 230.078,336.275 229.695 C 336.175 229.313,336.096 229.720,336.101 230.600 M198.800 233.260 C 198.030 233.935,197.762 234.305,198.204 234.081 C 198.935 233.711,200.747 231.978,200.362 232.016 C 200.273 232.025,199.570 232.585,198.800 233.260 M369.693 237.200 C 369.693 237.970,369.775 238.285,369.876 237.900 C 369.976 237.515,369.976 236.885,369.876 236.500 C 369.775 236.115,369.693 236.430,369.693 237.200 M192.494 239.400 C 191.490 240.390,190.783 241.200,190.924 241.200 C 191.064 241.200,191.989 240.390,192.979 239.400 C 193.969 238.410,194.676 237.600,194.549 237.600 C 194.423 237.600,193.498 238.410,192.494 239.400 M294.435 239.200 C 296.036 241.404,296.636 242.062,296.077 241.000 C 295.845 240.560,295.087 239.570,294.392 238.800 L 293.128 237.400 294.435 239.200 M335.456 238.484 C 335.321 238.988,335.228 239.850,335.249 240.400 C 335.272 240.989,335.431 240.671,335.636 239.625 C 336.003 237.752,335.873 236.927,335.456 238.484 M369.118 243.800 C 368.963 246.000,368.737 248.430,368.614 249.200 C 368.492 249.970,368.670 249.615,369.011 248.410 C 369.400 247.031,369.587 245.032,369.515 243.010 L 369.400 239.800 369.118 243.800 M189.751 242.500 C 188.570 243.848,187.880 244.800,188.084 244.800 C 188.184 244.800,188.845 244.080,189.552 243.200 C 190.925 241.492,191.064 241.001,189.751 242.500 M297.055 243.000 C 297.980 244.579,298.000 244.603,298.000 244.111 C 298.000 243.879,297.629 243.264,297.176 242.744 L 296.353 241.800 297.055 243.000 M334.944 246.400 C 334.944 248.490,335.012 249.345,335.094 248.300 C 335.176 247.255,335.176 245.545,335.094 244.500 C 335.012 243.455,334.944 244.310,334.944 246.400 M186.951 246.100 C 185.770 247.448,185.080 248.400,185.284 248.400 C 185.384 248.400,186.045 247.680,186.752 246.800 C 188.125 245.092,188.264 244.601,186.951 246.100 M114.902 247.542 C 115.575 248.215,115.395 254.840,114.624 257.784 C 114.281 259.095,113.996 261.255,113.990 262.584 C 113.985 263.913,113.803 265.720,113.585 266.600 C 113.170 268.278,112.616 273.598,111.982 282.000 C 111.204 292.301,110.903 295.060,110.467 295.876 C 110.220 296.337,109.843 298.939,109.630 301.657 C 109.029 309.315,108.398 313.750,107.828 314.332 C 106.916 315.263,55.109 315.242,54.177 314.310 C 53.873 314.006,55.464 311.231,56.763 309.800 C 57.805 308.653,63.317 301.573,65.795 298.200 C 66.442 297.320,67.682 295.834,68.551 294.899 C 69.421 293.963,70.418 292.774,70.766 292.256 C 72.021 290.391,79.654 280.541,84.602 274.400 C 85.577 273.190,87.236 271.086,88.288 269.724 C 92.209 264.649,94.838 261.311,97.366 258.200 C 98.797 256.440,101.256 253.333,102.831 251.296 C 104.431 249.227,106.072 247.508,106.548 247.404 C 109.540 246.745,114.182 246.822,114.902 247.542 M300.884 249.803 C 301.040 250.045,301.344 250.683,301.559 251.222 C 301.806 251.840,301.959 251.959,301.975 251.544 C 301.989 251.184,301.685 250.545,301.300 250.125 C 300.915 249.706,300.728 249.560,300.884 249.803 M236.800 250.234 C 235.540 250.750,235.520 250.780,236.600 250.537 C 237.260 250.389,238.700 250.142,239.800 249.990 L 241.800 249.713 240.000 249.687 C 239.010 249.673,237.570 249.919,236.800 250.234 M243.500 249.889 C 244.215 249.978,245.385 249.978,246.100 249.889 C 246.815 249.801,246.230 249.728,244.800 249.728 C 243.370 249.728,242.785 249.801,243.500 249.889 M182.700 252.214 C 181.701 253.550,181.831 253.923,182.846 252.633 C 183.311 252.042,183.626 251.495,183.546 251.418 C 183.466 251.341,183.085 251.700,182.700 252.214 M229.800 252.048 C 228.700 252.490,227.551 253.095,227.248 253.393 C 226.944 253.690,227.574 253.530,228.648 253.036 C 229.721 252.543,231.050 251.940,231.600 251.697 C 233.345 250.925,231.885 251.210,229.800 252.048 M224.697 254.766 C 223.053 255.819,222.825 256.191,224.275 255.454 C 224.976 255.097,225.661 254.624,225.798 254.403 C 226.119 253.884,226.023 253.915,224.697 254.766 M368.109 258.000 C 368.109 258.990,368.187 259.395,368.282 258.900 C 368.378 258.405,368.378 257.595,368.282 257.100 C 368.187 256.605,368.109 257.010,368.109 258.000 M178.300 260.614 C 177.301 261.950,177.431 262.323,178.446 261.033 C 178.911 260.442,179.226 259.895,179.146 259.818 C 179.066 259.741,178.685 260.100,178.300 260.614 M215.789 262.300 C 214.495 263.785,213.853 264.640,214.362 264.200 C 215.383 263.319,218.573 259.600,218.308 259.600 C 218.217 259.600,217.083 260.815,215.789 262.300 M367.217 261.741 C 366.945 262.711,366.809 263.841,366.915 264.252 C 367.055 264.798,367.120 264.719,367.154 263.960 C 367.179 263.388,367.401 262.343,367.646 261.639 C 367.892 260.935,368.007 260.273,367.901 260.168 C 367.796 260.063,367.488 260.771,367.217 261.741 M305.008 262.800 C 305.757 265.765,305.918 266.198,305.959 265.346 C 305.982 264.876,305.720 263.886,305.378 263.146 C 304.969 262.261,304.843 262.142,305.008 262.800 M177.070 263.410 C 176.921 263.845,176.691 264.470,176.558 264.800 C 176.426 265.130,176.619 264.990,176.988 264.490 C 177.358 263.989,177.588 263.364,177.500 263.100 C 177.410 262.831,177.222 262.967,177.070 263.410 M332.649 264.615 C 332.512 264.973,332.415 265.566,332.434 265.933 C 332.453 266.300,332.627 266.069,332.821 265.420 C 333.198 264.158,333.065 263.533,332.649 264.615 M306.101 269.800 C 306.105 270.680,306.187 270.993,306.283 270.495 C 306.379 269.998,306.375 269.278,306.275 268.895 C 306.175 268.513,306.096 268.920,306.101 269.800 M209.589 271.221 C 209.347 271.672,209.206 272.314,209.275 272.646 C 209.344 272.979,209.598 272.609,209.840 271.825 C 210.335 270.223,210.242 270.000,209.589 271.221 M271.293 272.000 C 271.293 272.770,271.375 273.085,271.476 272.700 C 271.576 272.315,271.576 271.685,271.476 271.300 C 271.375 270.915,271.293 271.230,271.293 272.000 M174.432 272.400 C 174.399 272.950,174.114 273.850,173.800 274.400 C 173.486 274.950,173.249 276.030,173.274 276.800 C 173.317 278.113,173.329 278.125,173.472 277.000 C 173.556 276.340,173.907 275.147,174.251 274.349 C 174.596 273.551,174.791 272.561,174.685 272.149 C 174.537 271.574,174.479 271.632,174.432 272.400 M366.008 274.274 C 365.747 275.773,365.603 278.260,365.688 279.800 L 365.843 282.600 365.922 279.320 C 365.965 277.516,366.198 275.118,366.439 273.992 C 366.681 272.866,366.789 271.856,366.680 271.747 C 366.571 271.638,366.269 272.775,366.008 274.274 M332.093 274.400 C 332.093 275.170,332.175 275.485,332.276 275.100 C 332.376 274.715,332.376 274.085,332.276 273.700 C 332.175 273.315,332.093 273.630,332.093 274.400 M208.465 274.617 C 208.209 275.178,208.008 275.944,208.018 276.319 C 208.027 276.693,208.289 276.287,208.600 275.415 C 209.245 273.604,209.159 273.094,208.465 274.617 M271.687 275.000 C 271.691 275.440,271.832 276.340,272.000 277.000 C 272.274 278.078,272.306 278.098,272.313 277.200 C 272.317 276.650,272.176 275.750,272.000 275.200 C 271.749 274.416,271.681 274.373,271.687 275.000 M306.493 276.400 C 306.493 277.170,306.575 277.485,306.676 277.100 C 306.776 276.715,306.776 276.085,306.676 275.700 C 306.575 275.315,306.493 275.630,306.493 276.400 M331.737 279.000 C 331.739 280.760,331.809 281.430,331.893 280.489 C 331.978 279.549,331.977 278.109,331.891 277.289 C 331.805 276.470,331.736 277.240,331.737 279.000 M207.300 279.300 C 206.870 280.475,206.880 280.526,207.412 279.824 C 207.921 279.152,208.221 278.000,207.888 278.000 C 207.826 278.000,207.561 278.585,207.300 279.300 M272.025 280.024 C 271.938 282.179,271.776 282.159,289.205 282.080 C 305.168 282.008,306.400 281.907,306.400 280.675 C 306.400 280.439,306.175 280.554,305.900 280.928 C 305.445 281.548,303.973 281.616,289.577 281.676 C 273.319 281.745,272.986 281.717,272.397 280.259 C 272.171 279.699,272.042 279.617,272.025 280.024 M206.542 284.200 C 206.541 286.180,206.608 287.040,206.692 286.112 C 206.776 285.184,206.777 283.564,206.695 282.512 C 206.612 281.460,206.543 282.220,206.542 284.200 M172.166 289.200 C 172.166 293.270,172.225 294.935,172.298 292.900 C 172.371 290.865,172.371 287.535,172.298 285.500 C 172.225 283.465,172.166 285.130,172.166 289.200 M331.033 285.233 C 330.883 286.366,330.841 287.374,330.939 287.472 C 331.037 287.571,331.245 286.728,331.400 285.600 C 331.555 284.472,331.598 283.464,331.494 283.361 C 331.391 283.258,331.184 284.100,331.033 285.233 M365.293 285.200 C 365.293 285.970,365.375 286.285,365.476 285.900 C 365.576 285.515,365.576 284.885,365.476 284.500 C 365.375 284.115,365.293 284.430,365.293 285.200 M364.942 291.000 C 364.941 292.980,365.008 293.840,365.092 292.912 C 365.176 291.984,365.177 290.364,365.095 289.312 C 365.012 288.260,364.943 289.020,364.942 291.000 M206.493 289.200 C 206.493 289.970,206.575 290.285,206.676 289.900 C 206.776 289.515,206.776 288.885,206.676 288.500 C 206.575 288.115,206.493 288.430,206.493 289.200 M330.540 292.400 C 330.540 294.270,330.609 295.035,330.693 294.100 C 330.777 293.165,330.777 291.635,330.693 290.700 C 330.609 289.765,330.540 290.530,330.540 292.400 M208.032 294.600 C 208.030 295.040,208.286 295.850,208.600 296.400 C 209.330 297.678,209.334 297.404,208.612 295.400 C 208.295 294.520,208.034 294.160,208.032 294.600 M329.829 297.429 C 329.681 298.015,329.638 298.572,329.732 298.666 C 329.827 298.760,330.024 298.358,330.171 297.771 C 330.319 297.185,330.362 296.628,330.268 296.534 C 330.173 296.440,329.976 296.842,329.829 297.429 M209.204 298.200 C 209.205 298.420,209.563 299.140,210.000 299.800 C 211.036 301.364,211.037 300.808,210.001 299.110 C 209.562 298.389,209.204 297.980,209.204 298.200 M329.340 302.400 C 329.340 304.270,329.409 305.035,329.493 304.100 C 329.577 303.165,329.577 301.635,329.493 300.700 C 329.409 299.765,329.340 300.530,329.340 302.400 M213.580 304.680 C 214.493 305.824,216.176 307.507,217.320 308.421 L 219.400 310.082 217.400 308.214 C 216.300 307.187,214.617 305.504,213.659 304.474 L 211.919 302.600 213.580 304.680 M173.620 303.200 C 173.616 303.310,173.871 304.120,174.188 305.000 C 174.505 305.880,174.766 306.240,174.768 305.800 C 174.771 305.135,173.645 302.585,173.620 303.200 M363.518 305.800 C 363.379 306.680,363.153 307.940,363.018 308.600 C 362.866 309.336,363.018 309.133,363.409 308.073 C 363.761 307.124,363.986 305.864,363.910 305.273 C 363.794 304.375,363.731 304.461,363.518 305.800 M175.212 308.800 C 175.212 309.130,175.387 309.670,175.600 310.000 C 175.945 310.533,175.988 310.533,175.988 310.000 C 175.988 309.670,175.813 309.130,175.600 308.800 C 175.255 308.267,175.212 308.267,175.212 308.800 M328.195 311.500 C 328.062 312.325,327.871 313.404,327.770 313.898 L 327.586 314.797 280.893 314.900 L 234.200 315.003 280.886 315.102 C 325.002 315.195,327.592 315.161,327.931 314.500 C 328.325 313.730,328.889 310.000,328.610 310.000 C 328.515 310.000,328.328 310.675,328.195 311.500 M220.400 310.596 C 220.400 310.870,222.849 312.084,223.032 311.901 C 223.119 311.814,222.562 311.444,221.795 311.078 C 221.028 310.712,220.400 310.495,220.400 310.596 M362.540 313.600 C 362.540 315.470,362.609 316.235,362.693 315.300 C 362.777 314.365,362.777 312.835,362.693 311.900 C 362.609 310.965,362.540 311.730,362.540 313.600 M230.700 314.682 C 231.195 314.778,232.005 314.778,232.500 314.682 C 232.995 314.587,232.590 314.509,231.600 314.509 C 230.610 314.509,230.205 314.587,230.700 314.682 M361.456 323.445 C 361.315 324.472,361.226 326.502,361.258 327.956 C 361.305 330.102,361.375 329.772,361.630 326.205 C 361.961 321.564,361.883 320.326,361.456 323.445 M360.920 333.600 C 360.920 334.810,360.995 335.305,361.087 334.700 C 361.178 334.095,361.178 333.105,361.087 332.500 C 360.995 331.895,360.920 332.390,360.920 333.600 M360.459 340.400 C 360.420 340.950,360.289 341.850,360.167 342.400 C 359.976 343.262,360.008 343.302,360.397 342.691 C 360.646 342.302,360.777 341.402,360.689 340.691 C 360.564 339.687,360.513 339.622,360.459 340.400 M359.693 344.800 C 359.693 345.570,359.775 345.885,359.876 345.500 C 359.976 345.115,359.976 344.485,359.876 344.100 C 359.775 343.715,359.693 344.030,359.693 344.800 M352.500 349.496 C 353.765 349.575,355.835 349.575,357.100 349.496 C 358.365 349.416,357.330 349.351,354.800 349.351 C 352.270 349.351,351.235 349.416,352.500 349.496 M154.800 357.953 C 148.947 359.491,146.217 362.709,146.302 367.971 C 146.382 372.898,149.320 375.872,155.400 377.182 C 162.050 378.614,165.571 380.038,165.826 381.397 C 166.367 384.279,166.019 384.892,163.400 385.673 C 158.266 387.205,155.163 386.453,152.936 383.137 L 151.769 381.400 148.985 381.400 L 146.200 381.400 146.070 382.764 C 145.043 393.533,167.046 396.570,172.214 386.373 C 174.722 381.424,171.263 373.600,166.567 373.600 C 166.086 373.600,165.176 373.331,164.546 373.002 C 163.916 372.674,162.994 372.404,162.499 372.402 C 162.003 372.401,160.925 372.040,160.104 371.600 C 159.284 371.160,158.066 370.800,157.399 370.800 C 154.389 370.800,152.132 367.562,153.700 365.494 C 155.799 362.727,162.743 363.364,164.592 366.494 C 166.715 370.089,172.846 369.131,171.431 365.426 C 168.869 358.717,162.606 355.903,154.800 357.953 M228.200 357.641 C 220.587 359.354,216.800 365.187,216.800 375.200 C 216.800 384.840,219.454 389.132,227.076 391.822 C 240.721 396.637,251.968 383.459,247.376 368.038 C 245.126 360.483,236.456 355.782,228.200 357.641 M182.976 358.568 C 182.188 359.144,181.701 389.833,182.468 390.601 C 182.965 391.098,185.386 391.456,187.096 391.286 C 189.239 391.072,189.665 389.830,189.508 384.263 C 189.374 379.545,188.980 379.841,195.733 379.586 C 202.519 379.329,204.102 378.633,206.559 374.827 C 208.394 371.983,208.682 366.639,207.138 364.047 C 205.842 361.870,203.140 359.202,202.217 359.187 C 201.768 359.180,201.051 358.910,200.624 358.587 C 199.507 357.743,184.128 357.726,182.976 358.568 M259.757 358.391 C 258.487 358.904,258.400 360.025,258.400 375.801 C 258.400 392.393,258.140 391.306,262.065 391.120 L 264.600 391.000 264.711 385.752 C 264.852 379.095,264.881 379.059,270.190 378.863 C 276.401 378.634,277.248 379.481,277.523 386.200 C 277.725 391.113,277.678 391.038,280.775 391.397 C 283.664 391.732,285.292 391.162,285.028 389.906 C 284.924 389.408,284.723 386.900,284.582 384.334 C 284.340 379.940,284.249 379.553,283.017 377.682 L 281.709 375.695 282.806 374.521 C 287.712 369.271,285.939 361.877,279.049 358.856 C 276.968 357.943,261.771 357.577,259.757 358.391 M293.680 358.480 C 293.132 359.028,293.040 362.728,293.555 363.540 C 293.787 363.908,295.246 364.164,298.117 364.342 C 300.438 364.486,302.486 364.752,302.668 364.934 C 302.851 365.116,303.046 370.696,303.103 377.333 C 303.159 383.970,303.291 389.780,303.396 390.245 C 303.807 392.061,309.969 391.723,310.028 389.881 C 310.044 389.397,310.117 383.786,310.190 377.414 C 310.347 363.859,310.165 364.402,314.544 364.398 C 317.777 364.395,319.886 363.789,320.209 362.771 C 320.621 361.475,320.005 358.831,319.190 358.395 C 318.062 357.791,294.289 357.871,293.680 358.480 M346.946 361.402 C 348.405 362.163,348.775 362.168,347.776 361.413 C 347.349 361.090,346.730 360.821,346.400 360.815 C 346.070 360.810,346.316 361.074,346.946 361.402 M349.738 362.879 C 350.363 363.385,351.443 364.368,352.138 365.062 C 352.832 365.757,353.815 366.837,354.321 367.462 C 354.828 368.088,354.639 367.709,353.902 366.620 C 353.164 365.530,351.670 364.036,350.580 363.298 C 349.491 362.561,349.112 362.372,349.738 362.879 M236.600 364.704 C 240.802 366.873,242.789 376.720,239.975 381.433 C 237.587 385.432,236.042 386.400,232.051 386.400 C 227.679 386.400,224.770 383.967,223.922 379.600 C 221.703 368.183,228.308 360.423,236.600 364.704 M326.581 365.300 L 325.000 367.000 326.700 365.419 C 328.281 363.948,328.584 363.600,328.281 363.600 C 328.216 363.600,327.451 364.365,326.581 365.300 M197.681 364.871 C 201.287 365.952,202.098 370.885,198.985 372.809 C 197.591 373.671,191.178 374.146,190.100 373.467 C 189.089 372.831,189.436 365.402,190.500 364.888 C 191.717 364.301,195.747 364.292,197.681 364.871 M275.530 364.835 C 279.055 366.064,279.049 371.355,275.521 372.843 C 273.164 373.837,266.459 373.560,265.544 372.431 C 264.450 371.079,264.501 366.889,265.629 365.454 C 266.555 364.276,272.806 363.886,275.530 364.835 M324.029 368.254 C 323.573 368.834,323.215 369.689,323.234 370.154 C 323.261 370.820,323.342 370.757,323.611 369.857 C 323.800 369.228,324.262 368.373,324.639 367.957 C 325.016 367.541,325.219 367.200,325.091 367.200 C 324.963 367.200,324.485 367.674,324.029 368.254 M356.468 371.400 C 356.462 371.840,356.611 372.560,356.800 373.000 C 357.238 374.019,357.238 372.968,356.800 371.600 C 356.543 370.796,356.477 370.757,356.468 371.400 M322.114 374.600 C 322.117 375.700,322.195 376.103,322.287 375.495 C 322.379 374.886,322.377 373.986,322.282 373.495 C 322.187 373.003,322.111 373.500,322.114 374.600 M357.284 377.667 C 357.238 379.794,357.096 381.864,356.970 382.267 C 356.757 382.944,356.774 382.947,357.184 382.309 C 357.459 381.883,357.579 380.122,357.498 377.709 L 357.367 373.800 357.284 377.667 M322.124 380.200 C 322.126 381.520,322.201 382.012,322.290 381.293 C 322.379 380.574,322.377 379.494,322.286 378.893 C 322.195 378.292,322.122 378.880,322.124 380.200 M323.204 384.929 C 323.197 385.554,325.210 388.685,326.104 389.438 L 327.000 390.194 326.158 389.197 C 325.695 388.649,324.842 387.390,324.262 386.400 C 323.682 385.410,323.206 384.748,323.204 384.929 M354.896 386.832 C 354.180 387.915,353.677 388.800,353.778 388.800 C 354.050 388.800,356.500 385.167,356.338 385.004 C 356.261 384.927,355.612 385.750,354.896 386.832 M351.329 390.928 C 350.190 391.848,348.840 392.917,348.329 393.304 C 347.715 393.769,347.901 393.726,348.879 393.176 C 350.227 392.420,354.073 389.216,353.600 389.245 C 353.490 389.252,352.468 390.009,351.329 390.928 M333.200 394.528 C 333.750 394.846,335.010 395.210,336.000 395.335 L 337.800 395.563 335.800 395.028 C 334.700 394.734,333.440 394.370,333.000 394.221 C 332.499 394.051,332.574 394.165,333.200 394.528 M343.400 395.042 L 341.400 395.590 343.162 395.380 C 344.130 395.265,345.210 395.003,345.562 394.798 C 346.395 394.310,345.848 394.372,343.400 395.042 " stroke="none" fill="#f47511" fill-rule="evenodd"></path></g></svg>